<svg width="34" height="26" viewBox="0 0 34 26" fill="none" xmlns="http://www.w3.org/2000/svg">
<path d="M29.6 0.625H4.4C2.0375 0.625 0.125 2.5375 0.125 4.9V21.1C0.125 23.4625 2.0375 25.375 4.4 25.375H29.6C31.9625 25.375 33.875 23.4625 33.875 21.1V4.9C33.875 2.5375 31.9625 0.625 29.6 0.625ZM31.625 21.1C31.625 22.2138 30.7138 23.125 29.6 23.125H4.4C3.28625 23.125 2.375 22.2138 2.375 21.1V4.9C2.375 3.78625 3.28625 2.875 4.4 2.875H29.6C30.7138 2.875 31.625 3.78625 31.625 4.9V21.1Z" fill="#273862"/>
<path d="M10.25 18.625H5.75C5.12878 18.625 4.625 19.1288 4.625 19.75C4.625 20.3712 5.12878 20.875 5.75 20.875H10.25C10.8712 20.875 11.375 20.3712 11.375 19.75C11.375 19.1288 10.8712 18.625 10.25 18.625Z" fill="#273862"/>
<path d="M28.25 6.25H5.75C5.12878 6.25 4.625 6.75378 4.625 7.375C4.625 7.99622 5.12878 8.5 5.75 8.5H28.25C28.8712 8.5 29.375 7.99622 29.375 7.375C29.375 6.75378 28.8712 6.25 28.25 6.25Z" fill="#273862"/>
</svg>
