<svg width="24" height="24" viewBox="0 0 24 24" fill="none" xmlns="http://www.w3.org/2000/svg">
<path d="M1.05908 1.88965H3.39242L3.85908 4.22298M5.72575 13.5563H17.3924L22.0591 4.22298H3.85908M5.72575 13.5563L3.85908 4.22298M5.72575 13.5563L3.05058 16.2315C2.31558 16.9665 2.83592 18.223 3.87542 18.223H17.3924M17.3924 18.223C16.7736 18.223 16.1801 18.4688 15.7425 18.9064C15.3049 19.344 15.0591 19.9375 15.0591 20.5563C15.0591 21.1752 15.3049 21.7686 15.7425 22.2062C16.1801 22.6438 16.7736 22.8896 17.3924 22.8896C18.0113 22.8896 18.6047 22.6438 19.0423 22.2062C19.4799 21.7686 19.7257 21.1752 19.7257 20.5563C19.7257 19.9375 19.4799 19.344 19.0423 18.9064C18.6047 18.4688 18.0113 18.223 17.3924 18.223ZM8.05908 20.5563C8.05908 21.1752 7.81325 21.7686 7.37566 22.2062C6.93808 22.6438 6.34459 22.8896 5.72575 22.8896C5.10691 22.8896 4.51342 22.6438 4.07583 22.2062C3.63825 21.7686 3.39242 21.1752 3.39242 20.5563C3.39242 19.9375 3.63825 19.344 4.07583 18.9064C4.51342 18.4688 5.10691 18.223 5.72575 18.223C6.34459 18.223 6.93808 18.4688 7.37566 18.9064C7.81325 19.344 8.05908 19.9375 8.05908 20.5563V20.5563Z" stroke="white" stroke-width="2" stroke-linecap="round" stroke-linejoin="round"/>
</svg>
