<svg width="59" height="59" viewBox="0 0 59 59" fill="none" xmlns="http://www.w3.org/2000/svg">
<circle cx="29.5591" cy="29.3896" r="29" fill="#121820"/>
<path d="M19.0591 18.8896H21.3924L21.8591 21.223M23.7257 30.5563H35.3924L40.0591 21.223H21.8591M23.7257 30.5563L21.8591 21.223M23.7257 30.5563L21.0506 33.2315C20.3156 33.9665 20.8359 35.223 21.8754 35.223H35.3924M35.3924 35.223C34.7736 35.223 34.1801 35.4688 33.7425 35.9064C33.3049 36.344 33.0591 36.9375 33.0591 37.5563C33.0591 38.1752 33.3049 38.7686 33.7425 39.2062C34.1801 39.6438 34.7736 39.8896 35.3924 39.8896C36.0113 39.8896 36.6047 39.6438 37.0423 39.2062C37.4799 38.7686 37.7257 38.1752 37.7257 37.5563C37.7257 36.9375 37.4799 36.344 37.0423 35.9064C36.6047 35.4688 36.0113 35.223 35.3924 35.223ZM26.0591 37.5563C26.0591 38.1752 25.8132 38.7686 25.3757 39.2062C24.9381 39.6438 24.3446 39.8896 23.7257 39.8896C23.1069 39.8896 22.5134 39.6438 22.0758 39.2062C21.6382 38.7686 21.3924 38.1752 21.3924 37.5563C21.3924 36.9375 21.6382 36.344 22.0758 35.9064C22.5134 35.4688 23.1069 35.223 23.7257 35.223C24.3446 35.223 24.9381 35.4688 25.3757 35.9064C25.8132 36.344 26.0591 36.9375 26.0591 37.5563V37.5563Z" stroke="white" stroke-width="2" stroke-linecap="round" stroke-linejoin="round"/>
</svg>
