<svg width="35" height="35" viewBox="0 0 35 35" fill="none" xmlns="http://www.w3.org/2000/svg">
<g clip-path="url(#clip0_71_57)">
<path d="M28.4375 10.9375C28.7276 10.9375 29.0058 11.0527 29.2109 11.2579C29.416 11.463 29.5312 11.7412 29.5312 12.0312V29.5312C29.5312 30.9817 28.9551 32.3727 27.9295 33.3982C26.9039 34.4238 25.5129 35 24.0625 35H10.9375C9.4871 35 8.0961 34.4238 7.07051 33.3982C6.04492 32.3727 5.46875 30.9817 5.46875 29.5312V5.46875C5.46875 4.01835 6.04492 2.62735 7.07051 1.60176C8.0961 0.576172 9.4871 0 10.9375 0H24.0625C25.5129 0 26.9039 0.576172 27.9295 1.60176C28.9551 2.62735 29.5312 4.01835 29.5312 5.46875V7.65625C29.5312 7.94633 29.416 8.22453 29.2109 8.42965C29.0058 8.63477 28.7276 8.75 28.4375 8.75C28.1474 8.75 27.8692 8.63477 27.6641 8.42965C27.459 8.22453 27.3438 7.94633 27.3438 7.65625V5.46875C27.3438 4.59851 26.998 3.76391 26.3827 3.14856C25.7673 2.5332 24.9327 2.1875 24.0625 2.1875H10.9375C10.0673 2.1875 9.23266 2.5332 8.61731 3.14856C8.00195 3.76391 7.65625 4.59851 7.65625 5.46875V29.5312C7.65815 30.2082 7.8694 30.868 8.26103 31.4202C8.65265 31.9724 9.20549 32.39 9.84375 32.6156V31.9266C9.84375 31.0012 10.2113 30.1137 10.8657 29.4594C11.52 28.8051 12.4075 28.4375 13.3328 28.4375H21.6672C22.1254 28.4375 22.5791 28.5277 23.0024 28.7031C23.4257 28.8784 23.8103 29.1354 24.1343 29.4594C24.4583 29.7834 24.7153 30.168 24.8907 30.5914C25.066 31.0147 25.1562 31.4684 25.1562 31.9266V32.6156C25.7945 32.39 26.3473 31.9724 26.739 31.4202C27.1306 30.868 27.3418 30.2082 27.3438 29.5312V12.0312C27.3438 11.7412 27.459 11.463 27.6641 11.2579C27.8692 11.0527 28.1474 10.9375 28.4375 10.9375ZM22.9688 31.9266C22.9688 31.7556 22.9351 31.5864 22.8697 31.4285C22.8043 31.2706 22.7084 31.1271 22.5875 31.0062C22.4667 30.8854 22.3232 30.7895 22.1653 30.7241C22.0074 30.6587 21.8381 30.625 21.6672 30.625H13.3328C12.9876 30.625 12.6566 30.7621 12.4125 31.0062C12.1684 31.2503 12.0312 31.5814 12.0312 31.9266V32.8125H22.9688V31.9266Z" fill="#273141"/>
<path d="M22.9688 15.3125C22.6787 15.3125 22.4005 15.1973 22.1954 14.9921C21.9902 14.787 21.875 14.5088 21.875 14.2188V13.125C21.875 12.8349 21.7598 12.5567 21.5546 12.3516C21.3495 12.1465 21.0713 12.0312 20.7812 12.0312H14.2188C13.9287 12.0312 13.6505 12.1465 13.4454 12.3516C13.2402 12.5567 13.125 12.8349 13.125 13.125V14.2188C13.125 14.5088 13.0098 14.787 12.8046 14.9921C12.5995 15.1973 12.3213 15.3125 12.0312 15.3125C11.7412 15.3125 11.463 15.1973 11.2579 14.9921C11.0527 14.787 10.9375 14.5088 10.9375 14.2188V13.125C10.9375 12.2548 11.2832 11.4202 11.8986 10.8048C12.5139 10.1895 13.3485 9.84375 14.2188 9.84375H20.7812C21.6515 9.84375 22.4861 10.1895 23.1014 10.8048C23.7168 11.4202 24.0625 12.2548 24.0625 13.125V14.2188C24.0625 14.5088 23.9473 14.787 23.7421 14.9921C23.537 15.1973 23.2588 15.3125 22.9688 15.3125Z" fill="#C6143E"/>
<path d="M16.7235 14.5359C16.8252 14.4334 16.9462 14.3521 17.0794 14.2965C17.2127 14.241 17.3557 14.2124 17.5001 14.2124C17.6445 14.2124 17.7874 14.241 17.9207 14.2965C18.054 14.3521 18.175 14.4334 18.2766 14.5359L21.5579 17.8172C21.6599 17.9192 21.7408 18.0402 21.796 18.1735C21.8511 18.3067 21.8796 18.4495 21.8796 18.5938C21.8796 18.738 21.8511 18.8808 21.796 19.014C21.7408 19.1473 21.6599 19.2683 21.5579 19.3703C21.4559 19.4723 21.3348 19.5532 21.2016 19.6084C21.0684 19.6636 20.9256 19.692 20.7813 19.692C20.6371 19.692 20.4943 19.6636 20.3611 19.6084C20.2278 19.5532 20.1067 19.4723 20.0048 19.3703L18.5938 17.9484V24.0625C18.5938 24.3526 18.4786 24.6308 18.2735 24.8359C18.0684 25.041 17.7902 25.1562 17.5001 25.1562C17.21 25.1562 16.9318 25.041 16.7267 24.8359C16.5216 24.6308 16.4063 24.3526 16.4063 24.0625V17.9484L14.9954 19.3703C14.7894 19.5763 14.5101 19.692 14.2188 19.692C13.9276 19.692 13.6482 19.5763 13.4423 19.3703C13.2363 19.1644 13.1206 18.885 13.1206 18.5938C13.1206 18.3025 13.2363 18.0231 13.4423 17.8172L16.7235 14.5359Z" fill="#C6143E"/>
</g>
<defs>
<clipPath id="clip0_71_57">
<rect width="35" height="35" fill="white" transform="matrix(1 0 0 -1 0 35)"/>
</clipPath>
</defs>
</svg>
