<svg width="20" height="21" viewBox="0 0 20 21" fill="none" xmlns="http://www.w3.org/2000/svg">
<path d="M14.4593 20.266H14.4867C15.0024 20.266 15.4897 20.0629 15.8589 19.6937L18.5078 17.0449C18.5985 16.9542 18.6706 16.8466 18.7197 16.7281C18.7688 16.6096 18.7941 16.4826 18.7941 16.3543C18.7941 16.2261 18.7688 16.099 18.7197 15.9806C18.6706 15.8621 18.5985 15.7544 18.5078 15.6638L14.6009 11.757C14.5103 11.6662 14.4027 11.5942 14.2842 11.545C14.1657 11.4959 14.0387 11.4706 13.9104 11.4706C13.7821 11.4706 13.6551 11.4959 13.5366 11.545C13.4181 11.5942 13.3105 11.6662 13.2199 11.757L11.663 13.3138C10.9412 13.099 9.59435 12.6106 8.74071 11.757C7.88707 10.9033 7.39872 9.55646 7.18384 8.83468L8.74071 7.27781C8.83149 7.18718 8.90351 7.07955 8.95265 6.96106C9.00179 6.84257 9.02708 6.71555 9.02708 6.58728C9.02708 6.45901 9.00179 6.33199 8.95265 6.2135C8.90351 6.09501 8.83149 5.98738 8.74071 5.89675L4.83389 1.98993C4.64717 1.81369 4.40012 1.71551 4.14336 1.71551C3.8866 1.71551 3.63955 1.81369 3.45283 1.98993L0.804982 4.63875C0.433835 5.0099 0.22482 5.51974 0.232633 6.04033C0.255098 7.43115 0.623315 12.2619 4.43051 16.0691C8.23771 19.8763 13.0685 20.2436 14.4593 20.266ZM4.14434 4.06152L6.6701 6.58728L5.40722 7.85016C5.29229 7.96477 5.20787 8.10631 5.16164 8.26189C5.11541 8.41747 5.10884 8.58215 5.14253 8.74092C5.16597 8.85324 5.7393 11.5167 7.36063 13.138C8.98196 14.7594 11.6454 15.3327 11.7578 15.3561C11.9165 15.39 12.0812 15.3835 12.2369 15.3373C12.3925 15.291 12.534 15.2065 12.6485 15.0915L13.9114 13.8286L16.4371 16.3543L14.4779 18.3126C13.2589 18.2921 9.08842 17.9649 5.81157 14.6871C2.52398 11.3995 2.20558 7.21432 2.18604 6.01981L4.14434 4.06152ZM17.8123 9.52228H19.7658C19.7658 4.51178 15.983 0.73291 10.9656 0.73291V2.68632C14.933 2.68632 17.8123 5.56076 17.8123 9.52228Z" fill="#1D2633"/>
</svg>
