<svg width="24" height="25" viewBox="0 0 24 25" fill="none" xmlns="http://www.w3.org/2000/svg">
<path d="M16.7391 22.1557H16.7665C17.2822 22.1557 17.7695 21.9525 18.1387 21.5833L20.7875 18.9345C20.8783 18.8439 20.9503 18.7362 20.9995 18.6178C21.0486 18.4993 21.0739 18.3723 21.0739 18.244C21.0739 18.1157 21.0486 17.9887 20.9995 17.8702C20.9503 17.7517 20.8783 17.6441 20.7875 17.5534L16.8807 13.6466C16.7901 13.5558 16.6825 13.4838 16.564 13.4347C16.4455 13.3856 16.3185 13.3603 16.1902 13.3603C16.0619 13.3603 15.9349 13.3856 15.8164 13.4347C15.6979 13.4838 15.5903 13.5558 15.4997 13.6466L13.9428 15.2035C13.221 14.9886 11.8741 14.5003 11.0205 13.6466C10.1669 12.793 9.6785 11.4461 9.46363 10.7243L11.0205 9.16746C11.1113 9.07683 11.1833 8.9692 11.2324 8.85071C11.2816 8.73222 11.3069 8.6052 11.3069 8.47693C11.3069 8.34865 11.2816 8.22164 11.2324 8.10315C11.1833 7.98466 11.1113 7.87702 11.0205 7.7864L7.11368 3.87958C6.92695 3.70333 6.67991 3.60516 6.42315 3.60516C6.16638 3.60516 5.91934 3.70333 5.73261 3.87958L3.08477 6.5284C2.71362 6.89955 2.5046 7.40939 2.51242 7.92997C2.53488 9.3208 2.9031 14.1516 6.7103 17.9588C10.5175 21.766 15.3483 22.1332 16.7391 22.1557ZM6.42412 5.95117L8.94988 8.47693L7.687 9.73981C7.57208 9.85442 7.48765 9.99596 7.44142 10.1515C7.39519 10.3071 7.38862 10.4718 7.42231 10.6306C7.44576 10.7429 8.01908 13.4064 9.64041 15.0277C11.2617 16.649 13.9252 17.2223 14.0375 17.2458C14.1963 17.2797 14.361 17.2732 14.5166 17.2269C14.6723 17.1807 14.8138 17.0962 14.9283 16.9811L16.1912 15.7182L18.7169 18.244L16.7577 20.2023C15.5387 20.1818 11.3682 19.8546 8.09136 16.5767C4.80377 13.2892 4.48536 9.10397 4.46583 7.90946L6.42412 5.95117ZM20.0921 11.4119H22.0455C22.0455 6.40143 18.2628 2.62256 13.2454 2.62256V4.57597C17.2128 4.57597 20.0921 7.45041 20.0921 11.4119Z" fill="white"/>
<path d="M13.2544 8.48197C15.3084 8.48197 16.1845 9.35808 16.1845 11.4121H18.1379C18.1379 8.26222 16.4043 6.52856 13.2544 6.52856V8.48197Z" fill="white"/>
</svg>
