<svg width="35" height="35" viewBox="0 0 35 35" fill="none" xmlns="http://www.w3.org/2000/svg">
<g clip-path="url(#clip0_71_33)">
<path d="M29.1992 12.4595C28.3474 11.8762 28.083 10.718 28.5975 9.82288C29.4507 8.33798 29.3122 6.51327 28.2443 5.17432C27.1765 3.8353 25.4285 3.2943 23.7909 3.79572C22.8035 4.09814 21.7334 3.58257 21.3543 2.62233C20.7254 1.02929 19.2125 0 17.4998 0C15.7871 0 14.2742 1.02929 13.6452 2.62233C13.2662 3.58264 12.1958 4.09793 11.2087 3.79572C9.57138 3.29423 7.82309 3.8353 6.75525 5.17432C5.68734 6.51334 5.54878 8.33805 6.40211 9.82288C6.91658 10.718 6.65223 11.8762 5.80034 12.4595C4.38722 13.4271 3.72037 15.1312 4.10141 16.8009C4.48244 18.4707 5.82269 19.7166 7.51568 19.9753C8.53621 20.1312 9.27695 21.06 9.2019 22.0897C9.17906 22.4025 9.19151 22.7109 9.23594 23.0109L5.85175 30.4963C5.67969 30.8769 5.74347 31.3227 6.01533 31.6398C6.28726 31.957 6.71793 32.0878 7.12049 31.976L10.8023 30.9512L12.465 34.3923C12.6447 34.7643 13.0213 35.0001 13.4337 35.0001C13.4382 35.0001 13.4428 35.0001 13.4474 35C13.8651 34.9947 14.2419 34.7481 14.414 34.3675L17.4373 27.6801L20.6716 34.3913C20.8511 34.7638 21.2279 35.0001 21.6407 35.0001C21.6449 35.0001 21.6492 35.0001 21.6534 35C22.0711 34.9951 22.4481 34.7489 22.6207 34.3684L24.1987 30.8877L27.9044 31.8222C28.3095 31.9244 28.7369 31.7827 29.001 31.4591C29.2651 31.1354 29.3179 30.6882 29.1366 30.3119L25.7245 23.2315C25.7997 22.863 25.826 22.4797 25.7975 22.0898C25.7224 21.0601 26.4632 20.1313 27.4838 19.9754C29.1767 19.7168 30.5169 18.4707 30.8981 16.801C31.2793 15.1312 30.6123 13.4271 29.1992 12.4595ZM13.4013 31.3842L12.3486 29.2055C12.1655 28.8265 11.7844 28.5975 11.38 28.5975C11.2843 28.5975 11.1873 28.6104 11.0914 28.6371L8.76036 29.2859L10.5066 25.4235C10.8069 25.702 11.1525 25.9394 11.5369 26.1246C13.0419 26.8493 14.8004 26.609 16.0533 25.5184L13.4013 31.3842ZM26.1993 29.173L23.8531 28.5814C23.3481 28.4541 22.8251 28.7064 22.6101 29.1804L21.611 31.3842L18.6735 25.2887C18.7351 25.3335 18.7949 25.3818 18.852 25.4345C19.6382 26.1612 20.6401 26.5394 21.6578 26.5393C22.2681 26.5393 22.8841 26.4033 23.4625 26.1247C23.8176 25.9537 24.139 25.7378 24.4227 25.4864L26.1993 29.173ZM28.8003 16.3221C28.6545 16.9609 28.1468 17.6973 27.1588 17.8482C26.1251 18.0061 25.1967 18.5433 24.5448 19.361C23.8928 20.1785 23.5756 21.2032 23.6517 22.2461C23.7243 23.2428 23.1194 23.9017 22.5291 24.186C21.9388 24.4704 21.0464 24.5325 20.3124 23.8542C19.5444 23.1444 18.5456 22.7536 17.4998 22.7536C16.4541 22.7536 15.4552 23.1445 14.6872 23.8542C13.9532 24.5324 13.0608 24.4703 12.4706 24.186C11.8802 23.9017 11.2753 23.2428 11.348 22.246C11.424 21.203 11.1069 20.1783 10.4549 19.3608C9.80291 18.5433 8.87452 18.006 7.84086 17.8481C6.85294 17.6971 6.34516 16.9607 6.19935 16.3219C6.05354 15.6831 6.19156 14.7993 7.01611 14.2346C7.87894 13.6439 8.48228 12.757 8.71504 11.7376C8.9478 10.7181 8.78894 9.65732 8.2679 8.7506C7.76998 7.88414 8.02906 7.02795 8.43757 6.51566C8.84615 6.00345 9.62319 5.56034 10.5787 5.85285C11.5785 6.1591 12.6482 6.07782 13.5902 5.62412C14.5324 5.17042 15.2627 4.3849 15.6467 3.41222C16.0136 2.48281 16.8445 2.15161 17.4998 2.15161C18.155 2.15161 18.986 2.48281 19.3529 3.41236C19.7369 4.38504 20.4672 5.17056 21.4094 5.62432C22.3515 6.07803 23.4211 6.1593 24.4209 5.85306C25.3762 5.56027 26.1534 6.00351 26.5621 6.51587C26.9706 7.02822 27.2297 7.88435 26.7317 8.7508C26.2106 9.65745 26.0519 10.7183 26.2846 11.7378C26.5174 12.7573 27.1206 13.6441 27.9835 14.2349C28.8081 14.7995 28.9461 15.6833 28.8003 16.3221Z" fill="#263140"/>
<path d="M17.4999 5.68311C13.06 5.68311 9.44775 9.29528 9.44775 13.7352C9.44775 18.1751 13.0599 21.7874 17.4999 21.7874C21.94 21.7874 25.552 18.1752 25.552 13.7352C25.552 9.29521 21.9399 5.68311 17.4999 5.68311ZM17.4999 19.6357C14.2464 19.6357 11.5995 16.9888 11.5995 13.7353C11.5995 10.4818 14.2464 7.83485 17.4999 7.83485C20.7535 7.83485 23.4004 10.4818 23.4004 13.7353C23.4003 16.9888 20.7534 19.6357 17.4999 19.6357Z" fill="#263140"/>
<path d="M21.1533 11.9145C20.8029 11.4348 20.13 11.3298 19.6499 11.6802L16.6396 13.879L16.1043 13.1169C15.7628 12.6306 15.0916 12.5133 14.6056 12.8548C14.1193 13.1962 14.002 13.8673 14.3435 14.3535L15.5086 16.0125C15.6746 16.2488 15.9286 16.4085 16.2136 16.4556C16.272 16.4652 16.3307 16.47 16.389 16.47C16.6156 16.47 16.8382 16.3984 17.0236 16.263L20.9191 13.4178C21.3988 13.0674 21.5037 12.3943 21.1533 11.9145Z" fill="#C6143E"/>
</g>
<defs>
<clipPath id="clip0_71_33">
<rect width="35" height="35" fill="white"/>
</clipPath>
</defs>
</svg>
