<svg width="35" height="35" viewBox="0 0 35 35" fill="none" xmlns="http://www.w3.org/2000/svg">
<g clip-path="url(#clip0_71_50)">
<path d="M30.7876 12.7683C31.2866 11.9898 31.4356 11.0312 31.1962 10.1381C30.9569 9.24498 30.3486 8.48917 29.5272 8.06465C28.8607 7.72004 28.4526 7.01318 28.4875 6.26374C28.5305 5.34011 28.1802 4.43541 27.5264 3.78154C26.8726 3.1278 25.9675 2.77785 25.0442 2.82037C24.2949 2.85524 23.5879 2.44705 23.2433 1.78067C22.8187 0.959236 22.0629 0.350957 21.1699 0.111692C20.2768 -0.12771 19.3181 0.0213182 18.5397 0.520356C17.9081 0.925192 17.0918 0.925329 16.4602 0.520356C15.6819 0.0213866 14.7231 -0.127641 13.8302 0.111692C12.937 0.350957 12.1813 0.959236 11.7566 1.78067C11.4121 2.44712 10.7043 2.85558 9.95572 2.82037C9.03216 2.77799 8.12747 3.12773 7.47359 3.78154C6.81978 4.43534 6.4695 5.34011 6.51243 6.26374C6.54729 7.01318 6.13918 7.72004 5.47272 8.06465C4.65136 8.48917 4.04301 9.24498 3.80368 10.1381C3.56441 11.0311 3.7133 11.9898 4.21234 12.7683C4.61732 13.3998 4.61732 14.2161 4.21234 14.8477C3.7133 15.6261 3.56435 16.5847 3.80368 17.4779C4.04301 18.3709 4.65129 19.1267 5.47265 19.5513C6.13918 19.8959 6.54729 20.6027 6.51236 21.3522C6.46943 22.2758 6.81971 23.1805 7.47352 23.8344C8.11154 24.4724 8.98862 24.82 9.88893 24.7968L6.48461 30.6933C6.34638 30.9328 6.366 31.2319 6.53431 31.4513C6.70261 31.6706 6.98652 31.7668 7.2536 31.6954L11.0757 30.6713L12.0999 34.4933C12.1715 34.7604 12.3969 34.9581 12.671 34.9941C12.701 34.9981 12.7309 35 12.7605 35C13.0023 35 13.2291 34.8715 13.3523 34.6582L17.4999 27.4742L21.6476 34.6582C21.7708 34.8715 21.9976 35 22.2394 35C22.2691 35 22.299 34.9981 22.3289 34.9941C22.603 34.9581 22.8284 34.7604 22.9 34.4933L23.9241 30.6712L27.7462 31.6953C28.0132 31.7669 28.2971 31.6706 28.4655 31.4512C28.6338 31.2318 28.6534 30.9327 28.5152 30.6932L25.1109 24.7968C26.0114 24.8204 26.8883 24.4723 27.5263 23.8343C28.1801 23.1805 28.5304 22.2757 28.4875 21.3521C28.4526 20.6027 28.8607 19.8958 29.5272 19.5512C30.3485 19.1267 30.9569 18.3709 31.1962 17.4778C31.4355 16.5847 31.2866 15.626 30.7876 14.8476C30.3826 14.2161 30.3826 13.3999 30.7876 12.7683V12.7683ZM12.9934 32.5453L12.2195 29.6571C12.1725 29.4819 12.058 29.3326 11.901 29.242C11.7441 29.1513 11.5576 29.1267 11.3823 29.1737L8.49402 29.9476L11.2329 25.2037C11.4472 25.3714 11.6274 25.5851 11.7566 25.8352C12.1812 26.6566 12.937 27.2649 13.8301 27.5042C14.1096 27.5791 14.3956 27.6159 14.6804 27.6159C15.1324 27.6159 15.5815 27.5226 15.9977 27.3417L12.9934 32.5453ZM23.6177 29.1737C23.4424 29.1267 23.2559 29.1513 23.099 29.242C22.9419 29.3326 22.8274 29.4819 22.7805 29.6571L22.0065 32.5453L19.0025 27.342C19.681 27.6369 20.4469 27.6979 21.1699 27.5041C22.063 27.2648 22.8187 26.6566 23.2434 25.8351C23.3726 25.5852 23.553 25.3717 23.7675 25.2043L26.506 29.9475L23.6177 29.1737ZM29.6366 15.5856C29.9328 16.0476 30.0176 16.594 29.8755 17.124C29.7335 17.6541 29.3868 18.0848 28.8993 18.3368C27.7599 18.9258 27.0621 20.1344 27.1217 21.4157C27.1472 21.9639 26.9476 22.4795 26.5595 22.8675C26.1715 23.2556 25.6553 23.4557 25.1078 23.4297C23.8267 23.3716 22.6179 24.0679 22.0288 25.2073C21.7768 25.6948 21.3461 26.0415 20.816 26.1835C20.286 26.3255 19.7397 26.2406 19.2777 25.9444C18.755 25.6093 18.1583 25.437 17.5593 25.4263C17.5506 25.4255 17.542 25.425 17.5333 25.4245C17.5226 25.424 17.5118 25.4239 17.501 25.4238C17.4891 25.4238 17.4771 25.424 17.4652 25.4246C17.4572 25.425 17.4492 25.4256 17.4413 25.4263C16.8421 25.4369 16.2452 25.6093 15.7223 25.9445C15.2604 26.2406 14.7142 26.3255 14.1841 26.1835C13.654 26.0415 13.2233 25.6948 12.9713 25.2074C12.4056 24.113 11.2686 23.4261 10.0445 23.4261C9.99387 23.4261 9.94314 23.4274 9.89228 23.4297C9.34423 23.4557 8.82851 23.2555 8.44056 22.8675C8.05247 22.4794 7.85286 21.9638 7.87836 21.4157C7.93797 20.1344 7.2402 18.9258 6.10076 18.3367C5.61327 18.0847 5.26661 17.6541 5.12456 17.124C4.9825 16.594 5.06741 16.0476 5.36355 15.5856C6.05591 14.5057 6.05591 13.1102 5.36355 12.0303C5.06734 11.5683 4.9825 11.022 5.12456 10.4919C5.26661 9.96182 5.61327 9.53114 6.10076 9.27916C7.2402 8.69009 7.93797 7.48153 7.87836 6.20023C7.85286 5.65204 8.05247 5.13646 8.44056 4.74844C8.82858 4.36035 9.34491 4.16053 9.89228 4.18624C11.1739 4.24516 12.3822 3.54808 12.9713 2.40863C13.2233 1.92108 13.654 1.57442 14.1841 1.43243C14.714 1.29045 15.2605 1.37528 15.7224 1.67149C16.8023 2.36379 18.1978 2.36379 19.2777 1.67149C19.2777 1.67149 19.2777 1.67149 19.2778 1.67143C19.7396 1.37535 20.2859 1.29038 20.816 1.43243C21.3461 1.57442 21.7768 1.92108 22.0288 2.40857C22.6179 3.54815 23.8269 4.24585 25.1078 4.18624C25.656 4.16053 26.1716 4.36042 26.5595 4.74844C26.9476 5.13653 27.1472 5.65211 27.1217 6.20023C27.0621 7.48153 27.7599 8.69009 28.8993 9.27923C29.3868 9.53121 29.7335 9.96182 29.8755 10.4919C30.0176 11.022 29.9327 11.5683 29.6366 12.0303C28.9442 13.1102 28.9442 14.5057 29.6366 15.5856V15.5856Z" fill="#273141"/>
<path d="M11.4771 17.9616C11.4771 18.6628 12.0476 19.2334 12.7488 19.2334H14.7723C15.1534 19.2334 15.495 19.064 15.7283 18.7975C16.377 19.0837 17.0791 19.2334 17.7965 19.2334H21.3019C22.5265 19.2334 23.5227 18.2371 23.5227 17.0126V14.0712C23.5227 12.8466 22.5265 11.8504 21.3019 11.8504H20.4221L20.7692 10.833C21.0925 9.88541 20.5899 8.8362 19.649 8.49419C18.8147 8.1908 17.8793 8.52427 17.4248 9.28711C16.9431 10.0958 16.2758 10.794 15.4908 11.3136C15.2862 11.1729 15.0389 11.0902 14.7723 11.0902H12.7489C12.0476 11.0902 11.4771 11.6608 11.4771 12.362V17.9616H11.4771ZM18.5993 9.98672C18.7183 9.78704 18.9633 9.69988 19.1819 9.77911C19.4282 9.86866 19.5598 10.1434 19.4752 10.3916L18.9734 11.8625C18.6564 11.9218 18.4162 12.1997 18.4162 12.5339C18.4162 12.9114 18.7223 13.2176 19.0998 13.2176H19.4618C19.4634 13.2176 19.4651 13.2178 19.4667 13.2178C19.4684 13.2178 19.4701 13.2176 19.4718 13.2176H21.3019C21.7726 13.2176 22.1555 13.6005 22.1555 14.0711V17.0126C22.1555 17.4832 21.7725 17.8661 21.3019 17.8661H17.7965C17.1822 17.8661 16.5832 17.7168 16.0441 17.4326V12.5839L16.1275 12.5309C17.1342 11.8911 17.989 11.0113 18.5993 9.98672ZM12.8443 12.4573H14.6768V17.832V17.8324V17.8661H12.8443V12.4573Z" fill="#C61640"/>
<path d="M17.4998 3.69043C15.9293 3.69043 14.4239 4.04058 13.0254 4.7313C12.6869 4.89844 12.548 5.30834 12.7151 5.64693C12.8823 5.98532 13.2921 6.12444 13.6308 5.95716C14.8394 5.36036 16.1411 5.05773 17.4998 5.05773C22.3248 5.05773 26.2501 8.9831 26.2501 13.808C26.2501 18.6329 22.3248 22.5582 17.4998 22.5582C12.6749 22.5582 8.74955 18.6329 8.74955 13.808C8.74955 12.4494 9.05219 11.1476 9.64905 9.93893C9.81619 9.60041 9.67735 9.19044 9.33876 9.02323C9.0001 8.85629 8.59027 8.995 8.42313 9.33352C7.73247 10.7321 7.38232 12.2374 7.38232 13.8079C7.38232 19.3867 11.921 23.9254 17.4998 23.9254C23.0786 23.9254 27.6173 19.3867 27.6173 13.8079C27.6173 8.22915 23.0786 3.69043 17.4998 3.69043Z" fill="#273141"/>
<path d="M10.8291 7.8208C11.0089 7.8208 11.1853 7.74766 11.3124 7.62051C11.4396 7.49336 11.5127 7.31699 11.5127 7.13721C11.5127 6.95742 11.4396 6.78105 11.3124 6.65391C11.1853 6.52683 11.0089 6.45361 10.8291 6.45361C10.6493 6.45361 10.4729 6.52676 10.3458 6.65391C10.2187 6.78105 10.1455 6.95742 10.1455 7.13721C10.1455 7.31699 10.2187 7.49336 10.3458 7.62051C10.4729 7.74766 10.6493 7.8208 10.8291 7.8208Z" fill="#273141"/>
</g>
<defs>
<clipPath id="clip0_71_50">
<rect width="35" height="35" fill="white"/>
</clipPath>
</defs>
</svg>
