<svg width="13" height="13" viewBox="0 0 13 13" fill="none" xmlns="http://www.w3.org/2000/svg">
<path d="M5.66846 1.08203C5.39502 1.35547 5.42236 1.76562 5.66846 2.03906L8.97705 5.15625H1.12939C0.746582 5.15625 0.473145 5.45703 0.473145 5.8125V6.6875C0.473145 7.07031 0.746582 7.34375 1.12939 7.34375H8.97705L5.66846 10.4883C5.42236 10.7617 5.42236 11.1719 5.66846 11.4453L6.27002 12.0469C6.54346 12.293 6.95361 12.293 7.19971 12.0469L12.5317 6.71484C12.7778 6.46875 12.7778 6.05859 12.5317 5.78516L7.19971 0.480469C6.95361 0.234375 6.54346 0.234375 6.27002 0.480469L5.66846 1.08203Z" fill="white"/>
</svg>
