<svg width="748" height="306" viewBox="0 0 748 306" fill="none" xmlns="http://www.w3.org/2000/svg">
<path fill-rule="evenodd" clip-rule="evenodd" d="M303.171 282.691H316.475L312.241 93.6094H307.399L303.171 282.691Z" fill="white"/>
<path fill-rule="evenodd" clip-rule="evenodd" d="M311.541 282.691H316.475L312.24 93.6094H310.394L311.541 282.691Z" fill="#E6E6E6"/>
<path fill-rule="evenodd" clip-rule="evenodd" d="M303.197 102.375C301.489 105.775 299.642 111.806 297.722 113.717C295.651 115.793 279.299 128.954 271.1 134.807C269.814 135.723 268.772 135.887 268.145 135.261C268.004 135.121 267.892 134.954 267.815 134.77C267.739 134.587 267.699 134.389 267.699 134.19C267.699 133.991 267.739 133.794 267.815 133.61C267.892 133.427 268.004 133.26 268.145 133.119L308.751 92.5482C308.892 92.408 309.059 92.2969 309.243 92.2212C309.426 92.1454 309.623 92.1066 309.822 92.1069C310.021 92.1072 310.218 92.1466 310.401 92.2229C310.585 92.2992 310.751 92.4109 310.892 92.5515C311.032 92.6921 311.143 92.859 311.219 93.0426C311.295 93.2262 311.334 93.4229 311.333 93.6215C311.333 93.8201 311.293 94.0167 311.217 94.2C311.141 94.3834 311.029 94.5499 310.888 94.6901L303.197 102.381V102.375Z" fill="white"/>
<path fill-rule="evenodd" clip-rule="evenodd" d="M305.539 83.4994C303.448 80.3228 299.141 75.7094 298.441 73.093C297.683 70.2591 294.451 49.5319 293.481 39.5143C293.329 37.9458 293.705 36.9572 294.563 36.7266C294.952 36.6238 295.366 36.6791 295.715 36.8804C296.063 37.0817 296.318 37.4126 296.423 37.8008L311.284 93.2204C311.371 93.6027 311.307 94.0039 311.104 94.3397C310.902 94.6755 310.577 94.9198 310.198 95.0213C309.819 95.1228 309.415 95.0736 309.071 94.884C308.728 94.6945 308.471 94.3793 308.355 94.0047L305.539 83.4994Z" fill="white"/>
<path fill-rule="evenodd" clip-rule="evenodd" d="M320.723 94.967C324.523 94.7363 330.677 93.3259 333.296 94.0245C336.132 94.7824 355.722 102.355 364.884 106.546C366.322 107.206 366.982 108.023 366.751 108.88C366.7 109.071 366.611 109.251 366.49 109.409C366.369 109.566 366.218 109.699 366.046 109.798C365.874 109.897 365.684 109.961 365.487 109.987C365.29 110.012 365.09 109.999 364.898 109.947L309.431 95.0988C309.043 94.9948 308.713 94.7412 308.513 94.3939C308.312 94.0466 308.258 93.634 308.362 93.2469C308.466 92.8597 308.72 92.5297 309.068 92.3295C309.415 92.1293 309.828 92.0752 310.216 92.1792L320.723 94.9933V94.967Z" fill="white"/>
<path fill-rule="evenodd" clip-rule="evenodd" d="M309.819 86.1292C311.302 86.1292 312.751 86.5684 313.983 87.3914C315.215 88.2143 316.176 89.384 316.743 90.7524C317.31 92.1208 317.458 93.6265 317.168 95.079C316.878 96.5315 316.164 97.8655 315.116 98.9123C314.067 99.959 312.731 100.672 311.277 100.96C309.823 101.248 308.316 101.099 306.947 100.531C305.578 99.9633 304.408 99.0027 303.586 97.7706C302.763 96.5385 302.325 95.0904 302.326 93.6094C302.328 91.6249 303.118 89.7223 304.523 88.3197C305.928 86.917 307.833 86.1291 309.819 86.1292Z" fill="#5F8088"/>
<path fill-rule="evenodd" clip-rule="evenodd" d="M309.82 89.6286C310.601 89.6351 311.363 89.8725 312.009 90.3109C312.656 90.7494 313.158 91.3692 313.453 92.0923C313.747 92.8154 313.821 93.6094 313.664 94.3743C313.508 95.1392 313.128 95.8407 312.574 96.3904C312.019 96.9401 311.314 97.3135 310.547 97.4634C309.78 97.6133 308.986 97.5331 308.265 97.2329C307.543 96.9327 306.927 96.4258 306.494 95.7763C306.06 95.1267 305.829 94.3635 305.829 93.5829C305.829 93.0608 305.933 92.5439 306.133 92.062C306.334 91.58 306.629 91.1426 307 90.775C307.371 90.4074 307.811 90.1168 308.295 89.92C308.779 89.7233 309.297 89.6242 309.82 89.6286Z" fill="#A5D0C5"/>
<path fill-rule="evenodd" clip-rule="evenodd" d="M307.432 89.0222C307.984 89.0222 308.523 89.1857 308.982 89.492C309.441 89.7984 309.798 90.2338 310.01 90.7432C310.221 91.2526 310.276 91.8131 310.168 92.3539C310.061 92.8947 309.795 93.3914 309.405 93.7813C309.014 94.1711 308.517 94.4367 307.976 94.5442C307.435 94.6518 306.874 94.5966 306.364 94.3856C305.854 94.1746 305.418 93.8173 305.112 93.3588C304.805 92.9004 304.642 92.3614 304.642 91.81C304.642 91.0706 304.936 90.3616 305.459 89.8387C305.982 89.3159 306.692 89.0222 307.432 89.0222Z" fill="white"/>
<path fill-rule="evenodd" clip-rule="evenodd" d="M202.534 282.691H214.625L210.779 110.87H206.38L202.534 282.691Z" fill="white"/>
<path fill-rule="evenodd" clip-rule="evenodd" d="M210.139 282.691H214.624L210.779 110.87H209.097L210.139 282.691Z" fill="#E6E6E6"/>
<path fill-rule="evenodd" clip-rule="evenodd" d="M204.823 120.116C204.163 123.504 203.926 129.231 202.692 131.36C201.373 133.667 190.107 149.062 184.282 156.127C183.372 157.228 182.495 157.616 181.796 157.214C181.481 157.031 181.251 156.731 181.157 156.379C181.063 156.027 181.112 155.652 181.294 155.336L207.389 110.185C207.479 110.028 207.599 109.891 207.742 109.782C207.885 109.672 208.048 109.591 208.222 109.544C208.397 109.497 208.579 109.485 208.757 109.509C208.936 109.532 209.109 109.59 209.265 109.68C209.422 109.77 209.559 109.89 209.669 110.033C209.779 110.176 209.859 110.339 209.906 110.513C209.953 110.688 209.965 110.869 209.942 111.048C209.918 111.227 209.86 111.399 209.77 111.555L204.823 120.123V120.116Z" fill="white"/>
<path fill-rule="evenodd" clip-rule="evenodd" d="M202.441 103.001C199.856 100.707 194.988 97.6626 193.761 95.5338C192.442 93.2271 184.711 75.7623 181.499 67.1946C180.997 65.8765 181.096 64.9011 181.795 64.4991C181.952 64.4082 182.124 64.349 182.303 64.3249C182.483 64.3009 182.665 64.3125 182.84 64.359C183.014 64.4056 183.178 64.4862 183.321 64.5962C183.465 64.7062 183.585 64.8434 183.675 65L209.756 110.185C209.846 110.341 209.905 110.513 209.928 110.692C209.952 110.871 209.94 111.052 209.893 111.226C209.846 111.401 209.765 111.564 209.655 111.707C209.545 111.85 209.408 111.97 209.252 112.06C209.095 112.15 208.923 112.208 208.744 112.231C208.565 112.255 208.383 112.243 208.209 112.196C208.035 112.149 207.871 112.068 207.728 111.958C207.585 111.849 207.465 111.712 207.375 111.555L202.428 102.988L202.441 103.001Z" fill="white"/>
<path fill-rule="evenodd" clip-rule="evenodd" d="M218.47 109.492C221.768 108.405 226.814 105.716 229.281 105.716C231.92 105.716 250.916 107.759 259.946 109.262C261.365 109.499 262.136 110.066 262.136 110.87C262.136 111.234 261.992 111.583 261.735 111.842C261.478 112.1 261.129 112.246 260.764 112.247H208.576C208.21 112.247 207.86 112.102 207.601 111.844C207.343 111.586 207.197 111.235 207.197 110.87C207.197 110.505 207.343 110.154 207.601 109.896C207.86 109.638 208.21 109.492 208.576 109.492H218.47Z" fill="white"/>
<path fill-rule="evenodd" clip-rule="evenodd" d="M208.576 104.068C209.922 104.068 211.238 104.467 212.358 105.215C213.477 105.962 214.35 107.024 214.865 108.267C215.38 109.51 215.515 110.877 215.252 112.197C214.989 113.516 214.341 114.728 213.389 115.679C212.437 116.63 211.224 117.278 209.904 117.54C208.583 117.803 207.215 117.668 205.971 117.153C204.727 116.639 203.664 115.767 202.916 114.648C202.168 113.53 201.769 112.215 201.769 110.87C201.769 109.066 202.486 107.336 203.762 106.06C205.039 104.785 206.77 104.068 208.576 104.068Z" fill="#5F8088"/>
<path fill-rule="evenodd" clip-rule="evenodd" d="M208.576 107.245C209.294 107.244 209.996 107.455 210.594 107.853C211.191 108.25 211.657 108.816 211.933 109.478C212.208 110.14 212.281 110.869 212.142 111.573C212.003 112.277 211.658 112.923 211.151 113.431C210.643 113.938 209.997 114.284 209.293 114.425C208.589 114.565 207.859 114.494 207.196 114.219C206.533 113.945 205.966 113.481 205.567 112.884C205.168 112.288 204.955 111.587 204.955 110.87C204.955 109.91 205.336 108.989 206.015 108.309C206.694 107.63 207.615 107.247 208.576 107.245Z" fill="#A5D0C5"/>
<path fill-rule="evenodd" clip-rule="evenodd" d="M206.406 106.698C206.909 106.697 207.401 106.845 207.819 107.123C208.238 107.401 208.564 107.797 208.758 108.261C208.951 108.725 209.001 109.236 208.904 109.729C208.806 110.222 208.564 110.674 208.208 111.03C207.853 111.385 207.4 111.627 206.906 111.724C206.413 111.822 205.902 111.771 205.438 111.578C204.973 111.385 204.577 111.059 204.298 110.641C204.02 110.223 203.872 109.731 203.873 109.229C203.873 108.558 204.14 107.914 204.615 107.439C205.09 106.965 205.734 106.698 206.406 106.698Z" fill="white"/>
<path fill-rule="evenodd" clip-rule="evenodd" d="M114.219 282.691H124.654L121.329 134.398H117.537L114.219 282.691Z" fill="white"/>
<path fill-rule="evenodd" clip-rule="evenodd" d="M120.782 282.691H124.654L121.329 134.398H119.885L120.782 282.691Z" fill="#E6E6E6"/>
<path fill-rule="evenodd" clip-rule="evenodd" d="M118.354 142.939C118.525 145.918 119.627 150.743 119.073 152.825C118.473 155.046 112.477 170.382 109.179 177.559C108.664 178.68 108.018 179.2 107.345 179.016C107.194 178.976 107.053 178.907 106.929 178.812C106.806 178.718 106.702 178.6 106.624 178.465C106.546 178.33 106.496 178.181 106.476 178.027C106.456 177.873 106.466 177.716 106.507 177.566L118.255 134.121C118.289 133.964 118.354 133.815 118.448 133.684C118.541 133.553 118.66 133.442 118.798 133.358C118.936 133.274 119.089 133.219 119.248 133.197C119.408 133.174 119.57 133.184 119.726 133.226C119.881 133.268 120.027 133.341 120.153 133.442C120.279 133.542 120.384 133.666 120.46 133.808C120.537 133.95 120.584 134.105 120.598 134.266C120.612 134.426 120.594 134.588 120.544 134.741L118.321 142.972L118.354 142.939Z" fill="white"/>
<path fill-rule="evenodd" clip-rule="evenodd" d="M112.569 129.192C109.931 127.874 105.168 126.391 103.671 124.888C102.048 123.26 91.745 110.422 87.1805 103.989C86.4616 102.981 86.3362 102.164 86.8309 101.67C86.9407 101.559 87.0712 101.472 87.215 101.412C87.3587 101.352 87.5129 101.321 87.6686 101.321C87.8244 101.321 87.9786 101.352 88.1223 101.412C88.2661 101.472 88.3966 101.559 88.5063 101.67L120.286 133.555C120.4 133.664 120.491 133.795 120.554 133.94C120.616 134.085 120.649 134.241 120.651 134.399C120.652 134.557 120.622 134.714 120.562 134.86C120.502 135.006 120.413 135.138 120.301 135.25C120.189 135.361 120.056 135.449 119.91 135.509C119.763 135.568 119.606 135.598 119.448 135.596C119.29 135.594 119.134 135.56 118.989 135.497C118.844 135.434 118.714 135.343 118.604 135.229L112.582 129.185L112.569 129.192Z" fill="white"/>
<path fill-rule="evenodd" clip-rule="evenodd" d="M127.377 131.063C129.871 129.422 133.505 126.061 135.557 125.514C137.786 124.921 154.059 122.43 161.941 121.685C163.168 121.566 163.92 121.863 164.124 122.535C164.205 122.84 164.161 123.165 164.003 123.438C163.845 123.71 163.585 123.91 163.28 123.992L119.746 135.545C119.441 135.626 119.117 135.583 118.844 135.426C118.572 135.268 118.373 135.009 118.291 134.705C118.21 134.4 118.253 134.076 118.411 133.804C118.568 133.531 118.828 133.333 119.132 133.251L127.384 131.063H127.377Z" fill="white"/>
<path fill-rule="evenodd" clip-rule="evenodd" d="M119.436 128.526C120.598 128.526 121.734 128.87 122.701 129.516C123.667 130.161 124.421 131.078 124.866 132.151C125.31 133.224 125.427 134.405 125.2 135.544C124.973 136.683 124.413 137.729 123.592 138.55C122.77 139.371 121.722 139.931 120.582 140.157C119.442 140.384 118.261 140.268 117.187 139.823C116.113 139.379 115.195 138.626 114.549 137.66C113.903 136.695 113.559 135.559 113.559 134.398C113.558 133.627 113.709 132.863 114.004 132.15C114.299 131.437 114.732 130.789 115.278 130.244C115.824 129.698 116.472 129.266 117.186 128.971C117.899 128.676 118.664 128.525 119.436 128.526Z" fill="#5F8088"/>
<path fill-rule="evenodd" clip-rule="evenodd" d="M119.436 131.274C120.054 131.275 120.658 131.46 121.171 131.804C121.684 132.148 122.084 132.636 122.32 133.207C122.555 133.778 122.616 134.406 122.495 135.012C122.374 135.617 122.075 136.173 121.638 136.609C121.2 137.046 120.643 137.342 120.037 137.462C119.431 137.582 118.802 137.52 118.231 137.284C117.66 137.047 117.172 136.647 116.829 136.133C116.486 135.619 116.303 135.016 116.303 134.398C116.303 133.987 116.384 133.581 116.541 133.201C116.699 132.822 116.93 132.477 117.221 132.187C117.512 131.897 117.857 131.667 118.237 131.51C118.617 131.353 119.025 131.273 119.436 131.274Z" fill="#A5D0C5"/>
<path fill-rule="evenodd" clip-rule="evenodd" d="M117.563 130.8C117.996 130.8 118.42 130.928 118.78 131.169C119.141 131.409 119.421 131.752 119.587 132.152C119.752 132.552 119.795 132.992 119.71 133.417C119.625 133.842 119.416 134.231 119.109 134.537C118.802 134.843 118.411 135.051 117.986 135.134C117.561 135.218 117.12 135.174 116.72 135.007C116.32 134.841 115.979 134.559 115.739 134.198C115.499 133.838 115.372 133.414 115.373 132.981C115.373 132.694 115.43 132.41 115.54 132.145C115.65 131.88 115.811 131.639 116.015 131.436C116.218 131.234 116.46 131.073 116.725 130.964C116.991 130.854 117.276 130.799 117.563 130.8Z" fill="white"/>
<path fill-rule="evenodd" clip-rule="evenodd" d="M576.04 217.28C581.647 217.519 586.945 219.913 590.828 223.962C594.711 228.011 596.879 233.401 596.879 239.009C596.879 244.617 594.711 250.007 590.828 254.056C586.945 258.105 581.647 260.499 576.04 260.738V282.691H521.14V213.28C521.084 209.642 521.752 206.03 523.106 202.653C524.46 199.276 526.473 196.202 529.028 193.61C531.582 191.017 534.627 188.959 537.986 187.554C541.344 186.148 544.949 185.425 548.59 185.425C552.231 185.425 555.835 186.148 559.194 187.554C562.552 188.959 565.597 191.017 568.152 193.61C570.706 196.202 572.719 199.276 574.073 202.653C575.428 206.03 576.096 209.642 576.04 213.28V217.28Z" fill="#B8C852"/>
<path fill-rule="evenodd" clip-rule="evenodd" d="M0 282.691H747.908V288.128H0V282.691Z" fill="#63681F"/>
<path fill-rule="evenodd" clip-rule="evenodd" d="M324.866 156.483C331.935 156.483 338.715 159.289 343.714 164.283C348.713 169.278 351.521 176.052 351.521 183.115V282.691H168.558C166.363 279.867 164.974 276.502 164.539 272.953C164.104 269.405 164.638 265.804 166.085 262.534C167.532 259.264 169.839 256.447 172.759 254.381C175.68 252.315 179.106 251.077 182.673 250.8C169.422 232.775 182.515 200.389 217.58 212.311C215.111 204.692 215.498 196.436 218.67 189.082C221.841 181.727 227.581 175.776 234.819 172.336C242.057 168.897 250.3 168.204 258.012 170.387C265.723 172.571 272.377 177.481 276.734 184.203C279.118 180.827 282.628 178.411 286.635 177.388C290.641 176.365 294.881 176.802 298.594 178.62C299.663 172.433 302.886 166.822 307.693 162.778C312.5 158.734 318.582 156.516 324.866 156.516V156.483Z" fill="#B8C852"/>
<path fill-rule="evenodd" clip-rule="evenodd" d="M446.992 282.691V229.967C446.992 201.628 485.909 192.691 497.73 218.163C509.886 210.255 521.601 210.914 524.292 223.152C543.922 213.794 570.188 216.094 570.195 241.243C578.704 234.416 595.214 239.484 591.962 256.402C608.023 250.47 622.865 266.821 619.461 282.678L446.992 282.691Z" fill="#869B34"/>
<path fill-rule="evenodd" clip-rule="evenodd" d="M329.997 222.388C334.968 222.388 339.735 224.36 343.251 227.872C346.766 231.383 348.742 236.145 348.744 241.112V282.691H236.801C237.214 280.238 238.177 277.91 239.616 275.88C241.055 273.85 242.935 272.171 245.114 270.967C247.293 269.763 249.715 269.067 252.201 268.929C254.687 268.79 257.172 269.214 259.472 270.169C258.978 266.988 259.485 263.732 260.924 260.851C262.362 257.97 264.66 255.606 267.501 254.087C270.342 252.568 273.585 251.967 276.782 252.369C279.979 252.77 282.972 254.154 285.348 256.329C288.401 252.266 292.631 249.239 297.464 247.66C302.298 246.082 307.5 246.027 312.366 247.504C311.347 244.677 311.024 241.645 311.424 238.666C311.824 235.688 312.935 232.849 314.664 230.389C316.393 227.93 318.688 225.922 321.357 224.535C324.026 223.148 326.989 222.423 329.997 222.421V222.388Z" fill="#869B34"/>
<path fill-rule="evenodd" clip-rule="evenodd" d="M579.245 263.928C590.373 263.928 598.156 272.054 597.985 282.691H553.856C557.451 272.054 568.117 263.928 579.245 263.928Z" fill="#B8C852"/>
<path fill-rule="evenodd" clip-rule="evenodd" d="M638.88 187.531C648.913 187.533 658.535 191.516 665.629 198.605C672.723 205.695 676.709 215.309 676.709 225.334C676.709 246.213 658.701 263.137 641.248 263.137C630.608 263.137 610.589 259.842 607.133 237.197C594.191 227.575 598.71 197.337 622.139 195.716C623.102 189.91 632.152 187.531 638.88 187.531Z" fill="#ABC341"/>
<path fill-rule="evenodd" clip-rule="evenodd" d="M664.837 197.818C668.59 201.35 671.58 205.612 673.622 210.342C675.664 215.072 676.715 220.169 676.71 225.321C676.71 246.199 658.702 263.124 641.249 263.124C632.614 263.124 617.813 260.936 610.689 248.038C607.292 238.152 613.202 234.297 630.352 243.201C646.638 251.656 642.054 236.762 654.718 236.762C666.875 236.762 672.937 222.625 663.372 210.189C655.035 199.341 649.045 185.738 664.837 197.818Z" fill="#819837"/>
<path fill-rule="evenodd" clip-rule="evenodd" d="M639.071 282.691H642.462V263.091C642.059 263.091 641.65 263.124 641.248 263.124C640.588 263.124 639.83 263.124 639.071 263.071V282.691Z" fill="#876542"/>
<path fill-rule="evenodd" clip-rule="evenodd" d="M616.922 233.005C622.14 231.43 621.341 239.306 616.922 239.306C612.503 239.306 611.691 231.397 616.922 233.005Z" fill="#E8FA7E"/>
<path fill-rule="evenodd" clip-rule="evenodd" d="M637.627 222.276C642.845 220.701 642.047 228.576 637.627 228.576C633.208 228.576 632.396 220.668 637.627 222.276Z" fill="#E8FA7E"/>
<path fill-rule="evenodd" clip-rule="evenodd" d="M660.35 233.005C665.561 231.43 664.763 239.306 660.35 239.306C655.938 239.306 655.12 231.397 660.35 233.005Z" fill="#E8FA7E"/>
<path fill-rule="evenodd" clip-rule="evenodd" d="M616.922 213.352C622.14 211.77 621.341 219.646 616.922 219.646C612.503 219.646 611.691 211.738 616.922 213.352Z" fill="#E8FA7E"/>
<path fill-rule="evenodd" clip-rule="evenodd" d="M660.35 213.352C665.561 211.77 664.763 219.646 660.35 219.646C655.938 219.646 655.12 211.738 660.35 213.352Z" fill="#E8FA7E"/>
<path fill-rule="evenodd" clip-rule="evenodd" d="M636.816 242.021C642.033 240.439 641.235 248.321 636.816 248.321C632.396 248.321 631.585 240.413 636.816 242.021Z" fill="#E8FA7E"/>
<path fill-rule="evenodd" clip-rule="evenodd" d="M638.848 202.096C644.065 200.521 643.267 208.396 638.848 208.396C634.428 208.396 633.617 200.488 638.848 202.096Z" fill="#E8FA7E"/>
<path fill-rule="evenodd" clip-rule="evenodd" d="M243.449 220.688L241.728 215.751L211.01 260.158L212.725 265.088L243.449 220.688Z" fill="#537679"/>
<path fill-rule="evenodd" clip-rule="evenodd" d="M211.01 260.158L136.184 260.185L137.899 265.121L212.725 265.088L211.01 260.158Z" fill="#3B5357"/>
<path fill-rule="evenodd" clip-rule="evenodd" d="M178.194 215.751H166.908L136.184 260.158H200.08L178.194 215.751Z" fill="#2C3E4B"/>
<path fill-rule="evenodd" clip-rule="evenodd" d="M241.728 215.751H178.194L200.08 260.158H211.01L241.728 215.751Z" fill="#567A81"/>
<path fill-rule="evenodd" clip-rule="evenodd" d="M200.08 260.158H163.801H159.843H140.18H136.223L138.452 256.804H138.518L151.11 238.607L152.66 236.281H152.72L166.453 216.43L166.908 215.771H178.194L179.843 219.126H168.583L156.71 236.3H176.347L183.339 226.191L184.994 229.545L180.305 236.3H188.312L189.961 239.648H177.989L166.116 256.83H185.753L193.16 246.114L194.816 249.475L189.724 256.83H198.444L200.093 260.178L200.08 260.158ZM162.126 256.81L173.999 239.629H154.382L142.509 256.804L162.126 256.81Z" fill="#A0D0C7"/>
<path fill-rule="evenodd" clip-rule="evenodd" d="M241.814 215.758L239.499 219.106H239.439L227.566 236.287C226.797 237.399 226.027 238.515 225.258 239.635H225.205L213.332 256.81L211.017 260.158H200.08L198.431 256.81H209.348L221.221 239.635H201.597L194.803 249.481L193.148 246.12L197.62 239.662H189.968L188.319 236.314H199.948L211.821 219.139H192.191L184.982 229.558L183.326 226.204L188.214 219.139H179.843L178.194 215.784H241.814V215.758ZM215.799 219.106L203.926 236.281H223.562L235.435 219.099L215.799 219.106Z" fill="#DAFFEA"/>
<path fill-rule="evenodd" clip-rule="evenodd" d="M184.751 283.001H193.253V265.101H184.751V283.001Z" fill="#537679"/>
<path fill-rule="evenodd" clip-rule="evenodd" d="M333.612 220.351L331.897 215.415L301.172 259.815L302.893 264.752L333.612 220.351Z" fill="#537679"/>
<path fill-rule="evenodd" clip-rule="evenodd" d="M301.172 259.815L226.346 259.842L228.067 264.778L302.894 264.752L301.172 259.815Z" fill="#3B5357"/>
<path fill-rule="evenodd" clip-rule="evenodd" d="M268.363 215.415H257.071L226.353 259.815L290.243 259.822L268.363 215.415Z" fill="#2C3E4B"/>
<path fill-rule="evenodd" clip-rule="evenodd" d="M331.897 215.415H268.363L290.243 259.822L301.172 259.815L331.897 215.415Z" fill="#567A81"/>
<path fill-rule="evenodd" clip-rule="evenodd" d="M290.23 259.822H253.951H249.993H230.343H226.386L228.615 256.474H228.721L241.273 238.278L242.823 235.945H242.889L256.622 216.1L257.071 215.441H268.363L270.012 218.789H258.746L246.873 235.964H266.484L273.482 225.848L275.131 229.202L270.461 235.964H278.462L280.118 239.312H268.152L256.279 256.487H275.909L283.323 245.778L284.979 249.132L279.887 256.487H288.6L290.249 259.835L290.23 259.822ZM252.282 256.467L264.155 239.292H244.545L232.672 256.467H252.282Z" fill="#A0D0C7"/>
<path fill-rule="evenodd" clip-rule="evenodd" d="M331.983 215.422L329.668 218.77H329.575L317.702 235.944H317.748L315.433 239.292H315.387L303.514 256.474L301.199 259.822H290.229L288.58 256.474H299.497L311.37 239.292H291.76L284.953 249.112L283.297 245.758L287.769 239.292H280.131L278.475 235.944H290.104L301.977 218.77H282.354L275.144 229.183L273.495 225.828L278.356 218.763H270.012L268.363 215.415H331.983V215.422ZM305.968 218.77L294.095 235.944H313.712L325.585 218.77H305.968Z" fill="#DAFFEA"/>
<path fill-rule="evenodd" clip-rule="evenodd" d="M274.92 282.665H283.416V264.758H274.92V282.665Z" fill="#537679"/>
<path fill-rule="evenodd" clip-rule="evenodd" d="M112.86 263.928C123.981 263.928 133.849 272.054 136.395 282.691H92.2734C93.1441 272.054 101.732 263.928 112.86 263.928Z" fill="#B8C852"/>
<path fill-rule="evenodd" clip-rule="evenodd" d="M500.316 142.373L524.728 177.678V268.812H475.91V177.678L500.316 142.373Z" fill="#74AFAF"/>
<path fill-rule="evenodd" clip-rule="evenodd" d="M467.263 174.982H347.306V188.15H436.914L436.855 201.312H347.306V268.812H467.263V174.982Z" fill="#745A3F"/>
<path fill-rule="evenodd" clip-rule="evenodd" d="M467.263 174.982H347.306L386.619 118.119H506.576L467.263 174.982Z" fill="#A98B6A"/>
<path fill-rule="evenodd" clip-rule="evenodd" d="M475.91 177.678L506.576 133.324L537.241 177.678V268.811H545.888V174.982L506.576 118.119L467.263 174.982V268.811H475.91V177.678Z" fill="#D3B797"/>
<path fill-rule="evenodd" clip-rule="evenodd" d="M537.24 177.678H524.728V268.811H537.24V177.678Z" fill="#E6E6E6"/>
<path fill-rule="evenodd" clip-rule="evenodd" d="M506.575 133.324L500.315 142.373L524.728 177.678H537.24L506.575 133.324Z" fill="#A2A2A2"/>
<path fill-rule="evenodd" clip-rule="evenodd" d="M500.316 142.373L524.728 177.678V268.812H512.215V198.53L487.81 163.225L475.91 180.433V177.678L500.316 142.373Z" fill="#486D6D"/>
<path fill-rule="evenodd" clip-rule="evenodd" d="M436.854 268.811H418.26V227.232H436.854V268.811Z" fill="white"/>
<path fill-rule="evenodd" clip-rule="evenodd" d="M436.854 268.811H422.475V227.232H436.854V268.811Z" fill="#74AFAF"/>
<path fill-rule="evenodd" clip-rule="evenodd" d="M436.914 201.311H351.521V188.15H436.914V201.311Z" fill="#74AFAF"/>
<path fill-rule="evenodd" clip-rule="evenodd" d="M501.048 268.812H331.132V275.771H501.048V268.812Z" fill="#656666"/>
<path fill-rule="evenodd" clip-rule="evenodd" d="M431.01 209.952H443.727V218.592H431.01V209.952Z" fill="white"/>
<path fill-rule="evenodd" clip-rule="evenodd" d="M398.663 218.592V268.811H390.016V209.952H431.01V218.592H398.663Z" fill="#D5D5D5"/>
<path fill-rule="evenodd" clip-rule="evenodd" d="M411.38 218.592V268.811H398.663V218.592H411.38Z" fill="white"/>
<path fill-rule="evenodd" clip-rule="evenodd" d="M411.38 218.592H443.727L436.854 228.57V227.232H418.2V235.681H411.38V218.592Z" fill="#473D31"/>
<path fill-rule="evenodd" clip-rule="evenodd" d="M524.728 177.678V188.104L537.24 177.678H524.728Z" fill="#989898"/>
<path fill-rule="evenodd" clip-rule="evenodd" d="M436.914 201.311H432.29V193.212H351.521V188.15H436.855L436.914 201.311Z" fill="#486D6D"/>
<path fill-rule="evenodd" clip-rule="evenodd" d="M436.854 268.811H432.171V244.242H422.475V227.232H436.854V268.811Z" fill="#486D6D"/>
<path fill-rule="evenodd" clip-rule="evenodd" d="M422.475 244.242L418.26 235.681V227.232H422.475V244.242Z" fill="#B2B2B2"/>
<path fill-rule="evenodd" clip-rule="evenodd" d="M579.674 268.812H501.048V275.771H579.674V268.812Z" fill="#9D9D9D"/>
<path fill-rule="evenodd" clip-rule="evenodd" d="M428.398 218.592H426.716V227.232H428.398V218.592Z" fill="#312921"/>
<path fill-rule="evenodd" clip-rule="evenodd" d="M418.26 218.592H416.578V235.681H418.26V218.592Z" fill="#312921"/>
<path fill-rule="evenodd" clip-rule="evenodd" d="M438.53 218.592H436.854V228.57L438.53 226.105V218.592Z" fill="#312921"/>
<path fill-rule="evenodd" clip-rule="evenodd" d="M544.45 275.771H465.824V282.731H544.45V275.771Z" fill="#434343"/>
<path fill-rule="evenodd" clip-rule="evenodd" d="M465.824 275.771H348.743V282.731H465.824V275.771Z" fill="#292929"/>
<path fill-rule="evenodd" clip-rule="evenodd" d="M411.38 218.592V235.681H407.086L398.663 218.592H411.38Z" fill="#989898"/>
<path fill-rule="evenodd" clip-rule="evenodd" d="M448.668 175.009H446.992L486.298 118.146H487.98L448.668 175.009Z" fill="#856643"/>
<path fill-rule="evenodd" clip-rule="evenodd" d="M438.53 175.009H436.854L476.167 118.146H477.843L438.53 175.009Z" fill="#856643"/>
<path fill-rule="evenodd" clip-rule="evenodd" d="M428.398 175.009H426.716L466.029 118.146H467.704L428.398 175.009Z" fill="#856643"/>
<path fill-rule="evenodd" clip-rule="evenodd" d="M418.26 175.009H416.578L455.891 118.146H457.573L418.26 175.009Z" fill="#856643"/>
<path fill-rule="evenodd" clip-rule="evenodd" d="M406.446 175.009L445.759 118.146H447.435L408.122 175.009H406.446Z" fill="#856643"/>
<path fill-rule="evenodd" clip-rule="evenodd" d="M397.983 175.009H396.308L435.62 118.146H437.322L397.983 175.009Z" fill="#856643"/>
<path fill-rule="evenodd" clip-rule="evenodd" d="M387.852 175.009H386.17L425.483 118.146H427.165L387.852 175.009Z" fill="#856643"/>
<path fill-rule="evenodd" clip-rule="evenodd" d="M377.713 175.009H376.031L415.344 118.146H417.026L377.713 175.009Z" fill="#856643"/>
<path fill-rule="evenodd" clip-rule="evenodd" d="M367.576 175.009H365.9L405.213 118.146H406.889L367.576 175.009Z" fill="#856643"/>
<path fill-rule="evenodd" clip-rule="evenodd" d="M458.807 175.009H457.111L496.424 118.146H498.106L458.807 175.009Z" fill="#856643"/>
<path fill-rule="evenodd" clip-rule="evenodd" d="M357.437 175.009H355.762L395.108 118.119H396.783L357.437 175.009Z" fill="#856643"/>
<path fill-rule="evenodd" clip-rule="evenodd" d="M475.91 256.006L524.728 185.389V177.678L519.273 169.782L475.91 232.504V256.006Z" fill="#A7D5CA"/>
<path fill-rule="evenodd" clip-rule="evenodd" d="M504.227 268.811L524.728 239.154V204.686L480.396 268.811H504.227Z" fill="#A7D5CA"/>
<path fill-rule="evenodd" clip-rule="evenodd" d="M512.215 257.252L524.728 239.154V204.686L512.215 222.783V257.252Z" fill="#5A8B8B"/>
<path fill-rule="evenodd" clip-rule="evenodd" d="M512.215 203.486L524.728 185.389V177.678L519.273 169.782L505.811 189.257L512.215 198.53V203.486Z" fill="#5A8B8B"/>
<path fill-rule="evenodd" clip-rule="evenodd" d="M423.53 201.311L432.633 188.15H416.387L407.284 201.311H423.53Z" fill="#A7D5CA"/>
<path fill-rule="evenodd" clip-rule="evenodd" d="M429.13 193.212L432.633 188.15H416.386L412.884 193.212H429.13Z" fill="#5A8B8B"/>
<path fill-rule="evenodd" clip-rule="evenodd" d="M492.407 127.636L490.692 122.7L459.974 167.1L461.689 172.036L492.407 127.636Z" fill="#537679"/>
<path fill-rule="evenodd" clip-rule="evenodd" d="M459.974 167.1L385.147 167.126L386.862 172.063L461.689 172.036L459.974 167.1Z" fill="#3B5357"/>
<path fill-rule="evenodd" clip-rule="evenodd" d="M427.158 122.7H415.866L385.147 167.1L449.044 167.107L427.158 122.7Z" fill="#2C3E4B"/>
<path fill-rule="evenodd" clip-rule="evenodd" d="M490.692 122.7H427.158L449.044 167.107L459.974 167.1L490.692 122.7Z" fill="#567A81"/>
<path fill-rule="evenodd" clip-rule="evenodd" d="M449.045 167.1H412.766H408.808H389.172H385.214L387.443 163.752H387.549L400.141 145.556L401.691 143.223H401.704L415.437 123.379L415.886 122.72H427.178L428.827 126.068H417.535L405.662 143.243H425.292L432.29 133.126L433.946 136.481L429.269 143.243H437.277L438.926 146.591H426.954L415.081 163.765H434.685L442.099 153.056L443.754 156.41L438.662 163.765H447.376L449.031 167.113L449.045 167.1ZM411.09 163.746L422.963 146.571H403.34L391.467 163.746H411.09Z" fill="#A0D0C7"/>
<path fill-rule="evenodd" clip-rule="evenodd" d="M490.751 122.707L488.436 126.055H488.344L476.471 143.229H476.517L474.202 146.577H474.156L462.283 163.759L459.967 167.1H449.044L447.388 163.752H458.312L470.185 146.571H450.561L443.767 156.391L442.112 153.036L446.584 146.571H438.926L437.277 143.223H448.906L460.779 126.048H441.155L433.946 136.468L432.29 133.113L437.178 126.048H428.807L427.158 122.7H490.751V122.707ZM464.736 126.055L452.863 143.229H472.5L484.373 126.055H464.736Z" fill="#DAFFEA"/>
<path fill-rule="evenodd" clip-rule="evenodd" d="M475.91 229.71H480.857V268.805H483.351V229.71H504.748V268.805H507.242V229.71H522.222V268.805H524.715V177.678L500.309 142.373L498.799 144.561L504.735 153.181V201.292H483.364V166.896L480.857 170.501V201.311H475.91V203.803H480.857V227.232H475.91V229.71ZM522.235 227.225H507.242V203.803H522.222V227.232L522.235 227.225ZM522.235 201.305H507.242V156.786L522.222 178.456V201.311L522.235 201.305ZM504.762 227.225H483.364V203.803H504.762V227.232V227.225Z" fill="#434343"/>
<path fill-rule="evenodd" clip-rule="evenodd" d="M498.284 145.312L503.725 153.181V201.292H504.761V153.181L498.824 144.561L498.303 145.312H498.284ZM522.234 229.71H521.199V268.805H522.234V229.71ZM504.761 229.71H503.725V268.805H504.761V229.71ZM480.857 229.71H479.814V268.805H480.857V229.71ZM522.221 203.796H521.185V227.225H522.221V203.803V203.796ZM504.748 203.796H503.712V227.225H504.748V203.803V203.796ZM480.857 203.796H479.814V227.225H480.857V203.803V203.796ZM521.185 178.449V201.305H522.221V178.456L507.241 156.786V158.289L521.185 178.456V178.449ZM479.814 171.997V201.305H480.857V170.501L479.814 172.003V171.997Z" fill="#656666"/>
<path fill-rule="evenodd" clip-rule="evenodd" d="M458.806 174.982H457.124V268.812H458.806V174.982Z" fill="#564431"/>
<path fill-rule="evenodd" clip-rule="evenodd" d="M448.668 174.982H446.992V268.812H448.668V174.982Z" fill="#564431"/>
<path fill-rule="evenodd" clip-rule="evenodd" d="M438.53 174.982H436.854V209.952H438.53V174.982Z" fill="#564431"/>
<path fill-rule="evenodd" clip-rule="evenodd" d="M428.398 201.312H426.716V209.952H428.398V201.312Z" fill="#564431"/>
<path fill-rule="evenodd" clip-rule="evenodd" d="M418.26 201.312H416.578V209.938H418.26V201.312Z" fill="#564431"/>
<path fill-rule="evenodd" clip-rule="evenodd" d="M406.446 201.312V209.952H408.122V201.312H406.446Z" fill="#564431"/>
<path fill-rule="evenodd" clip-rule="evenodd" d="M408.122 174.982H406.446V188.15H408.122V174.982Z" fill="#564431"/>
<path fill-rule="evenodd" clip-rule="evenodd" d="M396.308 201.312V209.952H397.983V201.312H396.308Z" fill="#564431"/>
<path fill-rule="evenodd" clip-rule="evenodd" d="M397.983 174.982H396.308V188.15H397.983V174.982Z" fill="#564431"/>
<path fill-rule="evenodd" clip-rule="evenodd" d="M386.17 201.312V268.812H387.852V201.312H386.17Z" fill="#564431"/>
<path fill-rule="evenodd" clip-rule="evenodd" d="M387.852 174.982H386.17V188.15H387.852V174.982Z" fill="#564431"/>
<path fill-rule="evenodd" clip-rule="evenodd" d="M376.031 201.312V268.812H377.713V201.312H376.031Z" fill="#564431"/>
<path fill-rule="evenodd" clip-rule="evenodd" d="M377.713 174.982H376.031V188.15H377.713V174.982Z" fill="#564431"/>
<path fill-rule="evenodd" clip-rule="evenodd" d="M365.9 201.312V268.812H367.576V201.312H365.9Z" fill="#564431"/>
<path fill-rule="evenodd" clip-rule="evenodd" d="M367.576 174.982H365.9V188.15H367.576V174.982Z" fill="#564431"/>
<path fill-rule="evenodd" clip-rule="evenodd" d="M355.762 201.312V268.812H357.437V201.312H355.762Z" fill="#564431"/>
<path fill-rule="evenodd" clip-rule="evenodd" d="M357.437 174.982H355.762V188.15H357.437V174.982Z" fill="#564431"/>
<path fill-rule="evenodd" clip-rule="evenodd" d="M428.398 174.982H426.716V188.15H428.398V174.982Z" fill="#564431"/>
<path fill-rule="evenodd" clip-rule="evenodd" d="M418.26 175.009H416.578V188.19H418.26V175.009Z" fill="#564431"/>
<path fill-rule="evenodd" clip-rule="evenodd" d="M416.578 235.681V268.811H418.26V235.681H416.578Z" fill="#564431"/>
<path fill-rule="evenodd" clip-rule="evenodd" d="M436.854 228.57V268.811H438.53V226.105L436.854 228.57Z" fill="#564431"/>
<path fill-rule="evenodd" clip-rule="evenodd" d="M195.245 25.055C199.124 25.0545 202.908 26.2489 206.082 28.4754C211.359 17.5681 219.387 10.1736 227.276 10.1736C237.17 10.1736 243.68 21.8652 243.37 37.5572C247.394 34.4548 252.331 32.7659 257.413 32.7527C266.608 32.7527 272.782 38.4996 271.206 45.5844H175.635C175.635 34.2487 184.408 25.055 195.232 25.055H195.245Z" fill="white"/>
<path fill-rule="evenodd" clip-rule="evenodd" d="M514.016 14.655C518.271 14.655 522.631 16.4806 526.219 19.4331C530.836 8.53243 538.93 0.8479 546.845 0.8479C555.565 0.8479 561.356 10.1669 561.356 22.8404C565.857 20.3811 570.909 19.1023 576.039 19.1234C586.283 19.1234 593.189 24.2837 591.421 30.6436H503.198C500.745 21.8123 505.586 14.655 514.016 14.655Z" fill="white"/>
<path fill-rule="evenodd" clip-rule="evenodd" d="M480.726 20.4348C485.62 20.4348 490.435 24.488 493.727 30.6435H470.251C472.025 24.488 475.831 20.4348 480.726 20.4348Z" fill="white"/>
<path fill-rule="evenodd" clip-rule="evenodd" d="M0 288.128H747.908V305.066H0V288.128Z" fill="#968568"/>
</svg>
