<svg width="58" height="59" viewBox="0 0 58 59" fill="none" xmlns="http://www.w3.org/2000/svg">
<circle cx="29" cy="29.3896" r="29" fill="#121820"/>
<g clip-path="url(#clip0_1_283)">
<path d="M33.1801 38.4865H33.2075C33.7232 38.4865 34.2106 38.2833 34.5798 37.9141L37.2286 35.2653C37.3194 35.1747 37.3914 35.0671 37.4405 34.9486C37.4897 34.8301 37.515 34.7031 37.515 34.5748C37.515 34.4465 37.4897 34.3195 37.4405 34.201C37.3914 34.0825 37.3194 33.9749 37.2286 33.8843L33.3218 29.9774C33.2311 29.8867 33.1235 29.8146 33.005 29.7655C32.8865 29.7164 32.7595 29.6911 32.6312 29.6911C32.503 29.6911 32.3759 29.7164 32.2575 29.7655C32.139 29.8146 32.0313 29.8867 31.9407 29.9774L30.3838 31.5343C29.6621 31.3194 28.3152 30.8311 27.4615 29.9774C26.6079 29.1238 26.1195 27.7769 25.9047 27.0551L27.4615 25.4983C27.5523 25.4076 27.6243 25.3 27.6735 25.1815C27.7226 25.063 27.7479 24.936 27.7479 24.8077C27.7479 24.6795 27.7226 24.5525 27.6735 24.434C27.6243 24.3155 27.5523 24.2078 27.4615 24.1172L23.5547 20.2104C23.368 20.0341 23.1209 19.936 22.8642 19.936C22.6074 19.936 22.3604 20.0341 22.1737 20.2104L19.5258 22.8592C19.1547 23.2304 18.9456 23.7402 18.9535 24.2608C18.9759 25.6516 19.3441 30.4824 23.1513 34.2896C26.9585 38.0968 31.7893 38.464 33.1801 38.4865V38.4865ZM22.8652 22.282L25.3909 24.8077L24.128 26.0706C24.0131 26.1852 23.9287 26.3268 23.8825 26.4823C23.8362 26.6379 23.8297 26.8026 23.8634 26.9614C23.8868 27.0737 24.4601 29.7372 26.0815 31.3585C27.7028 32.9798 30.3663 33.5532 30.4786 33.5766C30.6373 33.6105 30.8021 33.604 30.9577 33.5577C31.1133 33.5115 31.2548 33.427 31.3693 33.3119L32.6322 32.049L35.158 34.5748L33.1987 36.5331C31.9798 36.5126 27.8092 36.1854 24.5324 32.9076C21.2448 29.62 20.9264 25.4348 20.9069 24.2403L22.8652 22.282ZM36.5332 27.7427H38.4866C38.4866 22.7322 34.7038 18.9534 29.6865 18.9534V20.9068C33.6538 20.9068 36.5332 23.7812 36.5332 27.7427V27.7427Z" fill="white"/>
<path d="M29.6953 24.8128C31.7493 24.8128 32.6254 25.6889 32.6254 27.7429H34.5788C34.5788 24.593 32.8452 22.8594 29.6953 22.8594V24.8128V24.8128Z" fill="white"/>
</g>
<defs>
<clipPath id="clip0_1_283">
<rect width="21" height="21" fill="white" transform="translate(18 18)"/>
</clipPath>
</defs>
</svg>
