<svg width="24" height="25" viewBox="0 0 24 25" fill="none" xmlns="http://www.w3.org/2000/svg">
<path d="M16.7392 22.1557H16.7666C17.2823 22.1557 17.7697 21.9525 18.1388 21.5833L20.7877 18.9345C20.8785 18.8439 20.9505 18.7362 20.9996 18.6178C21.0487 18.4993 21.074 18.3723 21.074 18.244C21.074 18.1157 21.0487 17.9887 20.9996 17.8702C20.9505 17.7517 20.8785 17.6441 20.7877 17.5534L16.8808 13.6466C16.7902 13.5558 16.6826 13.4838 16.5641 13.4347C16.4456 13.3856 16.3186 13.3603 16.1903 13.3603C16.062 13.3603 15.935 13.3856 15.8165 13.4347C15.6981 13.4838 15.5904 13.5558 15.4998 13.6466L13.9429 15.2035C13.2211 14.9886 11.8743 14.5003 11.0206 13.6466C10.167 12.793 9.67863 11.4461 9.46375 10.7243L11.0206 9.16746C11.1114 9.07683 11.1834 8.9692 11.2326 8.85071C11.2817 8.73222 11.307 8.6052 11.307 8.47693C11.307 8.34865 11.2817 8.22164 11.2326 8.10315C11.1834 7.98466 11.1114 7.87702 11.0206 7.7864L7.1138 3.87958C6.92708 3.70333 6.68003 3.60516 6.42327 3.60516C6.1665 3.60516 5.91946 3.70333 5.73274 3.87958L3.08489 6.5284C2.71374 6.89955 2.50473 7.40939 2.51254 7.92997C2.535 9.3208 2.90322 14.1516 6.71042 17.9588C10.5176 21.766 15.3484 22.1332 16.7392 22.1557ZM6.42424 5.95117L8.95 8.47693L7.68712 9.73981C7.5722 9.85442 7.48778 9.99596 7.44155 10.1515C7.39531 10.3071 7.38875 10.4718 7.42244 10.6306C7.44588 10.7429 8.0192 13.4064 9.64053 15.0277C11.2619 16.649 13.9253 17.2223 14.0377 17.2458C14.1964 17.2797 14.3611 17.2732 14.5168 17.2269C14.6724 17.1807 14.8139 17.0962 14.9284 16.9811L16.1913 15.7182L18.7171 18.244L16.7578 20.2023C15.5389 20.1818 11.3683 19.8546 8.09148 16.5767C4.80389 13.2892 4.48548 9.10397 4.46595 7.90946L6.42424 5.95117ZM20.0923 11.4119H22.0457C22.0457 6.40143 18.2629 2.62256 13.2456 2.62256V4.57597C17.2129 4.57597 20.0923 7.45041 20.0923 11.4119Z" fill="white"/>
<path d="M13.2544 8.48197C15.3084 8.48197 16.1845 9.35808 16.1845 11.4121H18.1379C18.1379 8.26222 16.4043 6.52856 13.2544 6.52856V8.48197Z" fill="white"/>
</svg>
