<svg width="59" height="59" viewBox="0 0 59 59" fill="none" xmlns="http://www.w3.org/2000/svg">
<circle cx="29.5591" cy="29.3896" r="29" fill="#121820"/>
<path d="M38.0891 37.9196L34.0608 33.8842M36.2931 28.4911C36.2931 30.5154 35.489 32.4568 34.0576 33.8882C32.6262 35.3196 30.6848 36.1237 28.6605 36.1237C26.6362 36.1237 24.6948 35.3196 23.2634 33.8882C21.832 32.4568 21.0278 30.5154 21.0278 28.4911C21.0278 26.4667 21.832 24.5254 23.2634 23.094C24.6948 21.6626 26.6362 20.8584 28.6605 20.8584C30.6848 20.8584 32.6262 21.6626 34.0576 23.094C35.489 24.5254 36.2931 26.4667 36.2931 28.4911V28.4911Z" stroke="white" stroke-width="2" stroke-linecap="round"/>
</svg>
