<svg width="740" height="1392" viewBox="0 0 740 1392" fill="none" xmlns="http://www.w3.org/2000/svg">
<g opacity="0.36">
<path opacity="0.504185" d="M284.863 624.419C305.64 735.812 292.803 842.519 255.301 924.983C217.798 1007.45 155.679 1065.59 77.9071 1080.09C0.134777 1094.6 -78.7657 1062.77 -143.477 999.364C-208.185 935.966 -258.628 841.062 -279.405 729.669C-300.183 618.276 -287.345 511.569 -249.844 429.105C-212.341 346.639 -150.222 288.502 -72.4495 273.995C5.32278 259.489 84.2233 291.322 148.934 354.724C213.643 418.122 264.085 513.026 284.863 624.419Z" stroke="#474B52" stroke-width="2"/>
<path d="M294.353 507.527C372.447 589.633 419.797 686.117 433.259 775.701C446.721 865.289 426.287 947.879 368.962 1002.4C311.638 1056.93 228.129 1073.2 139.327 1055.27C50.5283 1037.35 -43.4649 985.225 -121.559 903.119C-199.654 821.013 -247.004 724.53 -260.466 634.945C-273.927 545.357 -253.494 462.767 -196.169 408.243C-138.845 353.719 -55.3354 337.445 33.4666 355.374C122.265 373.301 216.258 425.421 294.353 507.527Z" stroke="#FABE1F" stroke-width="2"/>
</g>
</svg>
